<?xml version="1.0" standalone="no"?>
<!DOCTYPE svg PUBLIC "-//W3C//DTD SVG 20010904//EN"
 "http://www.w3.org/TR/2001/REC-SVG-20010904/DTD/svg10.dtd">
<svg version="1.0" xmlns="http://www.w3.org/2000/svg"
 width="900.000000pt" height="1200.000000pt" viewBox="0 0 900.000000 1200.000000"
 preserveAspectRatio="xMidYMid meet">
<metadata>
Created by potrace 1.10, written by Peter Selinger 2001-2011
</metadata>
<g transform="translate(0.000000,1200.000000) scale(0.100000,-0.100000)"
fill="#000000" stroke="none">
<path d="M4315 8339 c-234 -36 -369 -80 -552 -180 -112 -60 -177 -113 -274
-223 -117 -131 -268 -385 -331 -556 -25 -68 -46 -119 -59 -143 -6 -10 -29 -55
-52 -100 -121 -238 -211 -354 -348 -446 -103 -69 -151 -85 -279 -89 l-115 -4
-175 55 c-215 68 -319 90 -432 91 -86 1 -88 0 -119 -31 -49 -49 -45 -104 21
-241 66 -136 212 -357 311 -467 14 -16 43 -55 64 -85 21 -30 63 -83 94 -118
60 -67 157 -188 296 -370 83 -107 142 -162 175 -162 8 0 35 6 60 14 25 8 81
22 125 31 44 10 109 23 145 31 97 21 416 71 570 89 74 9 171 21 215 27 44 6
296 14 560 18 292 5 496 12 520 19 69 18 119 13 305 -34 121 -31 188 -45 212
-45 15 0 71 -7 125 -16 231 -36 348 -56 354 -59 3 -2 55 -14 115 -25 60 -12
161 -32 224 -46 104 -22 259 -44 425 -60 73 -7 221 8 260 27 28 14 69 70 242
334 73 112 223 362 223 372 0 3 14 25 30 50 17 24 30 46 30 48 0 2 13 26 28
52 51 87 88 188 133 368 30 118 14 187 -55 240 -44 34 -134 42 -274 26 -114
-14 -159 -24 -282 -69 -198 -72 -334 -83 -465 -37 -44 15 -103 43 -130 61 -68
44 -193 174 -244 254 -41 62 -217 412 -297 590 -37 82 -77 151 -198 348 -11
17 -70 81 -132 141 -108 107 -117 113 -256 181 -79 38 -149 70 -156 70 -6 0
-46 12 -89 26 -43 14 -107 30 -143 35 -96 14 -336 19 -405 8z m-203 -726 c40
-43 48 -67 48 -135 0 -119 36 -211 120 -303 16 -16 38 -50 50 -75 49 -97 137
-195 183 -204 12 -3 63 -7 114 -10 114 -6 148 -22 174 -82 23 -56 24 -91 3
-146 -22 -56 -38 -68 -92 -68 -59 0 -86 -23 -130 -112 -54 -107 -98 -115 -191
-35 -58 50 -62 65 -66 227 -2 136 -12 162 -88 241 -74 79 -137 155 -137 168 0
20 -61 80 -93 89 -18 6 -70 13 -117 16 -72 5 -91 10 -125 34 -42 29 -85 93
-85 127 0 42 37 82 112 119 77 38 128 79 128 101 0 7 16 27 35 44 29 25 44 31
83 31 40 0 53 -5 74 -27z m923 -53 c10 -11 28 -44 39 -73 23 -56 15 -52 165
-83 13 -3 36 -18 52 -34 38 -37 39 -87 3 -147 -34 -59 -82 -87 -199 -113 l-98
-23 -93 -95 -93 -96 -38 11 c-21 6 -57 14 -80 18 -51 8 -54 23 -16 74 15 20
31 41 35 46 4 6 22 28 40 50 19 22 44 61 56 87 21 43 22 52 11 110 -17 96 -22
164 -15 192 3 14 22 41 41 61 34 33 39 35 104 35 55 0 71 -4 86 -20z m-709
-1092 c10 -23 30 -56 44 -72 l24 -29 -22 -36 c-52 -84 -63 -117 -52 -163 23
-103 4 -216 -45 -265 -29 -29 -39 -33 -87 -33 -62 0 -68 4 -128 84 -37 49 -56
64 -117 92 -54 24 -76 40 -83 59 -13 33 -13 96 -1 128 12 30 73 61 166 84 67
16 73 21 155 105 100 102 118 108 146 46z"/>
</g>
</svg>
